<?xml version="1.0" encoding="utf-8"?>
<!-- Generator: Adobe Illustrator 15.0.0, SVG Export Plug-In  -->
<!DOCTYPE svg PUBLIC "-//W3C//DTD SVG 1.1//EN" "http://www.w3.org/Graphics/SVG/1.1/DTD/svg11.dtd" [
	<!ENTITY ns_flows "http://ns.adobe.com/Flows/1.0/">
]>
<svg version="1.1"
	 xmlns="http://www.w3.org/2000/svg" xmlns:xlink="http://www.w3.org/1999/xlink" xmlns:a="http://ns.adobe.com/AdobeSVGViewerExtensions/3.0/"
	 x="0px" y="0px" width="612px" height="792px" viewBox="-294.842 -385 612 792"
	 overflow="visible" enable-background="new -294.842 -385 612 792" xml:space="preserve">
<defs>
</defs>
<g>
	<g>
		<path fill-rule="evenodd" clip-rule="evenodd" fill="#FFFFFF" d="M9.16,0C7.436,3.277,3.883,4.725,2.159,8.002
			c-0.851-0.184-0.944,0.39-1,1c-0.333,0-0.667,0-1,0c0-3,0-6.001,0-9.002C3.159,0,6.16,0,9.16,0z"/>
		<path fill-rule="evenodd" clip-rule="evenodd" fill="#AE8381" d="M10.161,1c0-0.333,0-0.667,0-1c0.333,0,0.667,0,1,0
			c0,0.333,0,0.667,0,1C10.827,1,10.494,1,10.161,1z"/>
		<path fill-rule="evenodd" clip-rule="evenodd" fill="#E1CBCA" d="M11.161,1c0-0.333,0-0.667,0-1c0.333,0,0.666,0,1,0
			c0,0.333,0,0.667,0,1C11.827,1,11.494,1,11.161,1z"/>
		<path fill-rule="evenodd" clip-rule="evenodd" fill="#FFFFFF" d="M12.161,1c0-0.333,0-0.667,0-1c0.667,0,1.333,0,2,0
			c0,0.333,0,0.667,0,1c-0.333,0-0.667,0-1,0S12.494,1,12.161,1z"/>
		<path fill-rule="evenodd" clip-rule="evenodd" fill="#F9F6F4" d="M14.161,1c0-0.333,0-0.667,0-1c0.667,0,1.334,0,2.001,0
			c0,0.333,0,0.667,0,1c-0.334,0-0.667,0-1,0C14.828,1,14.495,1,14.161,1z"/>
		<path fill-rule="evenodd" clip-rule="evenodd" fill="#FCFBFA" d="M16.162,1c0-0.333,0-0.667,0-1c0.333,0,0.667,0,1,0
			c0,0.333,0,0.667,0,1C16.829,1,16.495,1,16.162,1z"/>
		<path fill-rule="evenodd" clip-rule="evenodd" fill="#FFFFFF" d="M17.162,1c0-0.333,0-0.667,0-1c1.667,0,3.334,0,5.001,0
			c0,3.334,0,6.668,0,10.002c-0.333,0-0.667,0-1,0c0.184-0.851-0.39-0.944-1-1c-0.561-1.44-1.561-2.44-3.001-3c0-0.333,0-0.667,0-1
			c0-0.667,0-1.333,0-2c0-0.333,0-0.667,0-1S17.162,1.333,17.162,1z"/>
		<path fill-rule="evenodd" clip-rule="evenodd" fill="#BD9A9A" d="M9.16,2c0.057-0.61,0.149-1.184,1-1c0,0.333,0,0.667,0,1
			C9.827,2,9.494,2,9.16,2z"/>
		<path fill-rule="evenodd" clip-rule="evenodd" fill="#762A27" d="M10.161,2c0-0.333,0-0.667,0-1c0.333,0,0.667,0,1,0
			c0,0.333,0,0.667,0,1C10.827,2,10.494,2,10.161,2z"/>
		<path fill-rule="evenodd" clip-rule="evenodd" fill="#90534F" d="M11.161,2c0-0.333,0-0.667,0-1c0.333,0,0.666,0,1,0
			c0,0.333,0,0.667,0,1C11.827,2,11.494,2,11.161,2z"/>
		<path fill-rule="evenodd" clip-rule="evenodd" fill="#F5EFED" d="M12.161,2c0-0.333,0-0.667,0-1c0.333,0,0.667,0,1,0
			c0,0.333,0,0.667,0,1C12.828,2,12.494,2,12.161,2z"/>
		<path fill-rule="evenodd" clip-rule="evenodd" fill="#E1CBCA" d="M13.161,2c0-0.333,0-0.667,0-1c0.333,0,0.667,0,1,0
			c0,0.333,0,0.667,0,1C13.828,2,13.494,2,13.161,2z"/>
		<path fill-rule="evenodd" clip-rule="evenodd" fill="#9F5D59" d="M14.161,2c0-0.333,0-0.667,0-1c0.334,0,0.667,0,1.001,0
			c0,0.333,0,0.667,0,1C14.828,2,14.495,2,14.161,2z"/>
		<path fill-rule="evenodd" clip-rule="evenodd" fill="#A0605D" d="M15.162,2c0-0.333,0-0.667,0-1c0.333,0,0.666,0,1,0
			c0,0.333,0,0.667,0,1C15.828,2,15.495,2,15.162,2z"/>
		<path fill-rule="evenodd" clip-rule="evenodd" fill="#D8B9B7" d="M16.162,2c0-0.333,0-0.667,0-1c0.333,0,0.667,0,1,0
			c0,0.333,0,0.667,0,1C16.829,2,16.495,2,16.162,2z"/>
		<path fill-rule="evenodd" clip-rule="evenodd" fill="#AA937A" d="M10.161,3c0-0.333,0-0.667,0-1c0.333,0,0.667,0,1,0
			c0,0.333,0,0.667,0,1C10.827,3,10.494,3,10.161,3z"/>
		<path fill-rule="evenodd" clip-rule="evenodd" fill="#894C49" d="M13.161,3c-0.61-0.057-1.184-0.149-1-1c0.333,0,0.667,0,1,0
			C13.161,2.334,13.161,2.667,13.161,3z"/>
		<path fill-rule="evenodd" clip-rule="evenodd" fill="#AE8381" d="M13.161,3c0-0.333,0-0.667,0-1c0.333,0,0.667,0,1,0
			c0,0.333,0,0.667,0,1C13.828,3,13.494,3,13.161,3z"/>
		<path fill-rule="evenodd" clip-rule="evenodd" fill="#6C1916" d="M14.161,3c0-0.333,0-0.667,0-1c0.334,0,0.667,0,1.001,0
			c0.333,0,0.666,0,1,0c0,0.333,0,0.667,0,1c-0.334,0-0.667,0-1,0C14.828,3,14.495,3,14.161,3z"/>
		<path fill-rule="evenodd" clip-rule="evenodd" fill="#C7ACA5" d="M16.162,3c0-0.333,0-0.667,0-1c0.333,0,0.667,0,1,0
			c0,0.333,0,0.667,0,1C16.829,3,16.495,3,16.162,3z"/>
		<path fill-rule="evenodd" clip-rule="evenodd" fill="#B4978A" d="M9.16,4.001c0.057-0.61,0.149-1.184,1-1c0,0.333,0,0.667,0,1
			C9.827,4.001,9.494,4.001,9.16,4.001z"/>
		<path fill-rule="evenodd" clip-rule="evenodd" fill="#BDAF9A" d="M10.161,4.001c0-0.333,0-0.667,0-1c0.333,0,0.667,0,1,0
			c0.609,0.057,1.184,0.15,1,1C11.494,4.001,10.827,4.001,10.161,4.001z"/>
		<path fill-rule="evenodd" clip-rule="evenodd" fill="#762A27" d="M13.161,4.001c0-0.333,0-0.667,0-1c0.333,0,0.667,0,1,0
			c0.334,0,0.667,0,1.001,0c0,0.333,0,0.667,0,1c-0.334,0-0.667,0-1.001,0C13.828,4.001,13.494,4.001,13.161,4.001z"/>
		<path fill-rule="evenodd" clip-rule="evenodd" fill="#8C3B37" d="M15.162,4.001c0-0.333,0-0.667,0-1c0.333,0,0.666,0,1,0
			c0,0.333,0,0.667,0,1C15.828,4.001,15.495,4.001,15.162,4.001z"/>
		<path fill-rule="evenodd" clip-rule="evenodd" fill="#E9DFDA" d="M16.162,4.001c0-0.333,0-0.667,0-1c0.333,0,0.667,0,1,0
			c0,0.667,0,1.334,0,2c-0.333,0-0.667,0-1,0C16.162,4.668,16.162,4.334,16.162,4.001z"/>
		<path fill-rule="evenodd" clip-rule="evenodd" fill="#BBAA92" d="M8.16,5.001c0.057-0.61,0.149-1.184,1-1c0,0.333,0,0.667,0,1
			C8.827,5.001,8.494,5.001,8.16,5.001z"/>
		<path fill-rule="evenodd" clip-rule="evenodd" fill="#C9BBA7" d="M9.16,5.001c0-0.333,0-0.667,0-1c0.333,0,0.667,0,1,0
			c0,0.333,0,0.667,0,1C9.827,5.001,9.494,5.001,9.16,5.001z"/>
		<path fill-rule="evenodd" clip-rule="evenodd" fill="#C7ACA5" d="M10.161,5.001c0-0.333,0-0.667,0-1c0.667,0,1.333,0,2,0
			c0,0.333,0,0.667,0,1C11.494,5.001,10.827,5.001,10.161,5.001z"/>
		<path fill-rule="evenodd" clip-rule="evenodd" fill="#C9BBA7" d="M12.161,5.001c0-0.333,0-0.667,0-1c0.333,0,0.667,0,1,0
			c0,0.333,0,0.667,0,1C12.828,5.001,12.494,5.001,12.161,5.001z"/>
		<path fill-rule="evenodd" clip-rule="evenodd" fill="#9C736A" d="M13.161,5.001c0-0.333,0-0.667,0-1c0.333,0,0.667,0,1,0
			c0,0.333,0,0.667,0,1C13.828,5.001,13.494,5.001,13.161,5.001z"/>
		<path fill-rule="evenodd" clip-rule="evenodd" fill="#6C1916" d="M14.161,5.001c0-0.333,0-0.667,0-1c0.334,0,0.667,0,1.001,0
			c0,0.333,0,0.667,0,1C14.828,5.001,14.495,5.001,14.161,5.001z"/>
		<path fill-rule="evenodd" clip-rule="evenodd" fill="#793935" d="M15.162,5.001c0-0.333,0-0.667,0-1c0.333,0,0.666,0,1,0
			c0,0.333,0,0.667,0,1C15.828,5.001,15.495,5.001,15.162,5.001z"/>
		<path fill-rule="evenodd" clip-rule="evenodd" fill="#864540" d="M6.16,6.001c0.057-0.61,0.149-1.184,1-1c0,0.333,0,0.667,0,1
			C6.826,6.001,6.493,6.001,6.16,6.001z"/>
		<path fill-rule="evenodd" clip-rule="evenodd" fill="#C7ACA5" d="M7.16,6.001c0-0.333,0-0.667,0-1c0.333,0,0.667,0,1,0
			c0,0.333,0,0.667,0,1C7.827,6.001,7.493,6.001,7.16,6.001z"/>
		<path fill-rule="evenodd" clip-rule="evenodd" fill="#D4C7B7" d="M8.16,6.001c0-0.333,0-0.667,0-1c0.333,0,0.667,0,1,0
			s0.667,0,1,0c0.667,0,1.333,0,2,0c0.333,0,0.667,0,1,0s0.667,0,1,0c0,0.333,0,0.667,0,1c-0.333,0-0.667,0-1,0s-0.667,0-1,0
			c-0.334,0-0.667,0-1,0c-0.776,0.224-1.974,0.027-2.001,1c-0.333,0-0.667,0-1,0C8.16,6.668,8.16,6.335,8.16,6.001z"/>
		<path fill-rule="evenodd" clip-rule="evenodd" fill="#AE7A76" d="M14.161,6.001c0-0.333,0-0.667,0-1c0.334,0,0.667,0,1.001,0
			c0,0.333,0,0.667,0,1C14.828,6.001,14.495,6.001,14.161,6.001z"/>
		<path fill-rule="evenodd" clip-rule="evenodd" fill="#6D2320" d="M15.162,6.001c0-0.333,0-0.667,0-1c0.333,0,0.666,0,1,0
			c0,0.333,0,0.667,0,1C15.828,6.001,15.495,6.001,15.162,6.001z"/>
		<path fill-rule="evenodd" clip-rule="evenodd" fill="#DAC9C5" d="M16.162,6.001c0-0.333,0-0.667,0-1c0.333,0,0.667,0,1,0
			c0,0.333,0,0.667,0,1C16.829,6.001,16.495,6.001,16.162,6.001z"/>
		<path fill-rule="evenodd" clip-rule="evenodd" fill="#894C49" d="M5.159,7.001c0-0.333,0-0.667,0-1c0.333,0,0.667,0,1,0
			c0,0.333,0,0.667,0,1C5.826,7.001,5.493,7.001,5.159,7.001z"/>
		<path fill-rule="evenodd" clip-rule="evenodd" fill="#CEC1B6" d="M6.16,7.001c0-0.333,0-0.667,0-1c0.333,0,0.667,0,1,0
			c0,0.333,0,0.667,0,1C6.826,7.001,6.493,7.001,6.16,7.001z"/>
		<path fill-rule="evenodd" clip-rule="evenodd" fill="#E1D8CF" d="M7.16,7.001c0-0.333,0-0.667,0-1c0.333,0,0.667,0,1,0
			c0,0.333,0,0.667,0,1C7.827,7.001,7.493,7.001,7.16,7.001z"/>
		<path fill-rule="evenodd" clip-rule="evenodd" fill="#9F9089" d="M12.161,7.001c-0.61-0.057-1.184-0.149-1-1c0.333,0,0.666,0,1,0
			C12.161,6.335,12.161,6.668,12.161,7.001z"/>
		<path fill-rule="evenodd" clip-rule="evenodd" fill="#BBB1AD" d="M12.161,7.001c0-0.333,0-0.667,0-1c0.333,0,0.667,0,1,0
			c0,0.333,0,0.667,0,1C12.828,7.001,12.494,7.001,12.161,7.001z"/>
		<path fill-rule="evenodd" clip-rule="evenodd" fill="#DCD2C9" d="M13.161,7.001c0-0.333,0-0.667,0-1c0.333,0,0.667,0,1,0
			c0,0.333,0,0.667,0,1C13.828,7.001,13.494,7.001,13.161,7.001z"/>
		<path fill-rule="evenodd" clip-rule="evenodd" fill="#E1D8CF" d="M14.161,7.001c0-0.333,0-0.667,0-1c0.334,0,0.667,0,1.001,0
			c0,0.333,0,0.667,0,1c-0.057,0.61-0.15,1.184-1.001,1C14.161,7.668,14.161,7.335,14.161,7.001z"/>
		<path fill-rule="evenodd" clip-rule="evenodd" fill="#AE8381" d="M15.162,7.001c0-0.333,0-0.667,0-1c0.333,0,0.666,0,1,0
			c0,0.333,0,0.667,0,1C15.828,7.001,15.495,7.001,15.162,7.001z"/>
		<path fill-rule="evenodd" clip-rule="evenodd" fill="#864540" d="M16.162,7.001c0-0.333,0-0.667,0-1c0.333,0,0.667,0,1,0
			c0,0.333,0,0.667,0,1C16.829,7.001,16.495,7.001,16.162,7.001z"/>
		<path fill-rule="evenodd" clip-rule="evenodd" fill="#90534F" d="M4.159,8.002c0.057-0.61,0.149-1.184,1-1c0,0.333,0,0.667,0,1
			C4.826,8.002,4.493,8.002,4.159,8.002z"/>
		<path fill-rule="evenodd" clip-rule="evenodd" fill="#DAC9C5" d="M5.159,8.002c0-0.333,0-0.667,0-1c0.333,0,0.667,0,1,0
			c0,0.333,0,0.667,0,1C5.826,8.002,5.493,8.002,5.159,8.002z"/>
		<path fill-rule="evenodd" clip-rule="evenodd" fill="#E9E2DC" d="M6.16,8.002c0-0.333,0-0.667,0-1c0.333,0,0.667,0,1,0
			c0,0.333,0,0.667,0,1s0,0.667,0,1c-0.333,0-0.667,0-1,0C6.16,8.668,6.16,8.335,6.16,8.002z"/>
		<path fill-rule="evenodd" clip-rule="evenodd" fill="#E4DBD4" d="M7.16,8.002c0-0.333,0-0.667,0-1c0.333,0,0.667,0,1,0
			c0,0.333,0,0.667,0,1C7.827,8.002,7.493,8.002,7.16,8.002z"/>
		<path fill-rule="evenodd" clip-rule="evenodd" fill="#CEC1B6" d="M8.16,8.002c0-0.333,0-0.667,0-1c0.333,0,0.667,0,1,0
			c0,0.333,0,0.667,0,1C8.827,8.002,8.494,8.002,8.16,8.002z"/>
		<path fill-rule="evenodd" clip-rule="evenodd" fill="#BBB1AD" d="M10.161,8.002c-0.003-0.556,0.81-1.136,1,0
			C10.827,8.002,10.494,8.002,10.161,8.002z"/>
		<path fill-rule="evenodd" clip-rule="evenodd" fill="#E9DFDA" d="M13.161,8.002c0-0.333,0-0.667,0-1c0.333,0,0.667,0,1,0
			c0,0.333,0,0.667,0,1C13.828,8.002,13.494,8.002,13.161,8.002z"/>
		<path fill-rule="evenodd" clip-rule="evenodd" fill="#B68B88" d="M16.162,8.002c0-0.333,0-0.667,0-1c0.333,0,0.667,0,1,0
			c0,0.333,0,0.667,0,1C16.829,8.002,16.495,8.002,16.162,8.002z"/>
		<path fill-rule="evenodd" clip-rule="evenodd" fill="#FAF8F5" d="M1.158,9.002c0.057-0.61,0.15-1.184,1-1
			C2.102,8.612,2.009,9.186,1.158,9.002z"/>
		<path fill-rule="evenodd" clip-rule="evenodd" fill="#9A5752" d="M3.159,9.002c0.057-0.61,0.15-1.184,1-1c0,0.333,0,0.667,0,1
			C3.826,9.002,3.492,9.002,3.159,9.002z"/>
		<path fill-rule="evenodd" clip-rule="evenodd" fill="#E5DDD9" d="M4.159,9.002c0-0.333,0-0.667,0-1c0.333,0,0.667,0,1,0
			c0,0.333,0,0.667,0,1C4.826,9.002,4.493,9.002,4.159,9.002z"/>
		<path fill-rule="evenodd" clip-rule="evenodd" fill="#F3EFEB" d="M5.159,9.002c0-0.333,0-0.667,0-1c0.333,0,0.667,0,1,0
			c0,0.333,0,0.667,0,1C5.826,9.002,5.493,9.002,5.159,9.002z"/>
		<path fill-rule="evenodd" clip-rule="evenodd" fill="#F0EBE6" d="M7.16,9.002c0-0.333,0-0.667,0-1c0.333,0,0.667,0,1,0
			c0,0.333,0,0.667,0,1C7.827,9.002,7.493,9.002,7.16,9.002z"/>
		<path fill-rule="evenodd" clip-rule="evenodd" fill="#DCD2C9" d="M8.16,9.002c0-0.333,0-0.667,0-1c0.333,0,0.667,0,1,0
			c0,0.333,0,0.667,0,1C8.827,9.002,8.494,9.002,8.16,9.002z"/>
		<path fill-rule="evenodd" clip-rule="evenodd" fill="#B4ABA9" d="M9.16,9.002c0-0.333,0-0.667,0-1c0.333,0,0.667,0,1,0
			c0,0.333,0,0.667,0,1C9.827,9.002,9.494,9.002,9.16,9.002z"/>
		<path fill-rule="evenodd" clip-rule="evenodd" fill="#CBC6C5" d="M10.161,9.002c0-0.333,0-0.667,0-1c0.333,0,0.667,0,1,0
			C11.104,8.612,11.011,9.186,10.161,9.002z"/>
		<path fill-rule="evenodd" clip-rule="evenodd" fill="#ADA4A1" d="M12.161,9.002c0-0.333,0-0.667,0-1c0.333,0,0.667,0,1,0
			c0,0.333,0,0.667,0,1C12.828,9.002,12.494,9.002,12.161,9.002z"/>
		<path fill-rule="evenodd" clip-rule="evenodd" fill="#F4F1ED" d="M13.161,9.002c0-0.333,0-0.667,0-1c0.333,0,0.667,0,1,0
			c0,0.333,0,0.667,0,1C13.828,9.002,13.494,9.002,13.161,9.002z"/>
		<path fill-rule="evenodd" clip-rule="evenodd" fill="#ECE6E1" d="M15.162,9.002c0.057-0.61,0.149-1.184,1-1c0,0.333,0,0.667,0,1
			C15.828,9.002,15.495,9.002,15.162,9.002z"/>
		<path fill-rule="evenodd" clip-rule="evenodd" fill="#F4F1ED" d="M16.162,9.002c0-0.333,0-0.667,0-1c0.333,0,0.667,0,1,0
			c0,0.333,0,0.667,0,1C16.829,9.002,16.495,9.002,16.162,9.002z"/>
		<path fill-rule="evenodd" clip-rule="evenodd" fill="#F5EFED" d="M0.158,10.002c0-0.333,0-0.667,0-1c0.333,0,0.667,0,1,0
			c0,0.333,0,0.667,0,1C0.825,10.002,0.492,10.002,0.158,10.002z"/>
		<path fill-rule="evenodd" clip-rule="evenodd" fill="#9F5D59" d="M2.159,10.002c0.057-0.61,0.149-1.184,1-1c0,0.333,0,0.667,0,1
			C2.826,10.002,2.492,10.002,2.159,10.002z"/>
		<path fill-rule="evenodd" clip-rule="evenodd" fill="#ECE6E1" d="M3.159,10.002c0-0.333,0-0.667,0-1c0.333,0,0.667,0,1,0
			C4.103,9.612,4.01,10.186,3.159,10.002z"/>
		<path fill-rule="evenodd" clip-rule="evenodd" fill="#F0EBE6" d="M5.159,10.002c0-0.333,0-0.667,0-1c0.333,0,0.667,0,1,0
			C6.103,9.612,6.01,10.186,5.159,10.002z"/>
		<path fill-rule="evenodd" clip-rule="evenodd" fill="#F9F6F4" d="M7.16,10.002c0-0.333,0-0.667,0-1c0.333,0,0.667,0,1,0
			c0,0.333,0,0.667,0,1C7.827,10.002,7.493,10.002,7.16,10.002z"/>
		<path fill-rule="evenodd" clip-rule="evenodd" fill="#E5DDD9" d="M8.16,10.002c0-0.333,0-0.667,0-1c0.333,0,0.667,0,1,0
			c0,0.667,0,1.334,0,2.001c-0.333,0-0.667,0-1,0C8.16,10.669,8.16,10.336,8.16,10.002z"/>
		<path fill-rule="evenodd" clip-rule="evenodd" fill="#ADA4A1" d="M9.16,9.002c0.333,0,0.667,0,1,0
			c-0.224,0.776-0.028,1.973-1,2.001C9.16,10.336,9.16,9.669,9.16,9.002z"/>
		<path fill-rule="evenodd" clip-rule="evenodd" fill="#B4ABA9" d="M12.161,9.002c0.333,0,0.667,0,1,0c0,0.333,0,0.667,0,1
			s0,0.667,0,1c-0.333,0-0.667,0-1,0C12.161,10.336,12.161,9.669,12.161,9.002z"/>
		<path fill-rule="evenodd" clip-rule="evenodd" fill="#FCFBFA" d="M13.161,10.002c0-0.333,0-0.667,0-1c0.333,0,0.667,0,1,0
			c0,0.333,0,0.667,0,1C13.828,10.002,13.494,10.002,13.161,10.002z"/>
		<path fill-rule="evenodd" clip-rule="evenodd" fill="#F9F6F4" d="M17.162,10.002c0-0.333,0-0.667,0-1c0.61,0.057,1.184,0.149,1,1
			C17.829,10.002,17.495,10.002,17.162,10.002z"/>
		<path fill-rule="evenodd" clip-rule="evenodd" fill="#E1CBCA" d="M20.163,10.002c0-0.333,0-0.667,0-1c0.61,0.057,1.184,0.149,1,1
			C20.829,10.002,20.496,10.002,20.163,10.002z"/>
		<path fill-rule="evenodd" clip-rule="evenodd" fill="#D8B9B7" d="M0.158,11.003c0-0.334,0-0.667,0-1c0.333,0,0.667,0,1,0
			c0,0.333,0,0.667,0,1C0.825,11.003,0.492,11.003,0.158,11.003z"/>
		<path fill-rule="evenodd" clip-rule="evenodd" fill="#B68B88" d="M1.158,11.003c0-0.334,0-0.667,0-1c0.333,0,0.667,0,1,0
			c0,0.333,0,0.667,0,1C1.825,11.003,1.492,11.003,1.158,11.003z"/>
		<path fill-rule="evenodd" clip-rule="evenodd" fill="#E4DBD4" d="M2.159,11.003c0-0.334,0-0.667,0-1c0.333,0,0.667,0,1,0
			c0,0.333,0,0.667,0,1C2.826,11.003,2.492,11.003,2.159,11.003z"/>
		<path fill-rule="evenodd" clip-rule="evenodd" fill="#FAF8F5" d="M7.16,11.003c0-0.334,0-0.667,0-1c0.333,0,0.667,0,1,0
			c0,0.333,0,0.667,0,1C7.827,11.003,7.493,11.003,7.16,11.003z"/>
		<path fill-rule="evenodd" clip-rule="evenodd" fill="#FFFFFF" d="M13.161,11.003c0-0.334,0-0.667,0-1c0.333,0,0.667,0,1,0
			c0,0.333,0,0.667,0,1c0,0.333,0,0.666,0,1c-0.333,0-0.667,0-1,0C13.161,11.669,13.161,11.336,13.161,11.003z"/>
		<path fill-rule="evenodd" clip-rule="evenodd" fill="#F3EFEB" d="M14.161,11.003c0-0.334,0-0.667,0-1
			c0.61,0.057,1.185,0.149,1.001,1C14.828,11.003,14.495,11.003,14.161,11.003z"/>
		<path fill-rule="evenodd" clip-rule="evenodd" fill="#EEE9E5" d="M17.162,10.002c0.333,0,0.667,0,1,0c0,0.333,0,0.667,0,1
			c0,0.333,0,0.666,0,1C17.383,11.782,16.999,11.165,17.162,10.002z"/>
		<path fill-rule="evenodd" clip-rule="evenodd" fill="#F3EFEB" d="M18.162,11.003c0-0.334,0-0.667,0-1c0.334,0,0.667,0,1,0
			c0,0.333,0,0.667,0,1C18.829,11.003,18.496,11.003,18.162,11.003z"/>
		<path fill-rule="evenodd" clip-rule="evenodd" fill="#C7ACA5" d="M19.162,11.003c0-0.334,0-0.667,0-1c0.334,0,0.667,0,1.001,0
			c0,0.333,0,0.667,0,1C19.829,11.003,19.496,11.003,19.162,11.003z"/>
		<path fill-rule="evenodd" clip-rule="evenodd" fill="#C59D99" d="M20.163,11.003c0-0.334,0-0.667,0-1c0.333,0,0.666,0,1,0
			c0,0.333,0,0.667,0,1C20.829,11.003,20.496,11.003,20.163,11.003z"/>
		<path fill-rule="evenodd" clip-rule="evenodd" fill="#F5EFED" d="M21.163,11.003c0-0.334,0-0.667,0-1c0.333,0,0.667,0,1,0
			c0,0.333,0,0.667,0,1C21.83,11.003,21.496,11.003,21.163,11.003z"/>
		<path fill-rule="evenodd" clip-rule="evenodd" fill="#FFFFFF" d="M0.158,11.003c0.333,0,0.667,0,1,0c0,0.333,0,0.666,0,1
			c0,3.334,0,6.668,0,10.002C-1.13,20.293,0.792,14.37,0.158,11.003z"/>
		<path fill-rule="evenodd" clip-rule="evenodd" fill="#F9F6F4" d="M1.158,12.003c0-0.334,0-0.667,0-1c0.333,0,0.667,0,1,0
			c0,0.333,0,0.666,0,1C1.825,12.003,1.492,12.003,1.158,12.003z"/>
		<path fill-rule="evenodd" clip-rule="evenodd" fill="#F0EBE8" d="M4.159,12.003c0.057-0.61,0.149-1.184,1-1c0,1,0,2,0,3
			c-0.333,0-0.667,0-1,0C4.159,13.336,4.159,12.67,4.159,12.003z"/>
		<path fill-rule="evenodd" clip-rule="evenodd" fill="#F4F1ED" d="M6.16,12.003c0.057-0.61,0.149-1.184,1-1c0,0.333,0,0.666,0,1
			C6.826,12.003,6.493,12.003,6.16,12.003z"/>
		<path fill-rule="evenodd" clip-rule="evenodd" fill="#F9F6F4" d="M7.16,12.003c0-0.334,0-0.667,0-1c0.333,0,0.667,0,1,0
			s0.667,0,1,0c0,0.333,0,0.666,0,1c-0.333,0-0.667,0-1,0S7.493,12.003,7.16,12.003z"/>
		<path fill-rule="evenodd" clip-rule="evenodd" fill="#BBB1AD" d="M11.161,12.003c0.057-0.61,0.149-1.184,1-1c0,0.333,0,0.666,0,1
			C11.827,12.003,11.494,12.003,11.161,12.003z"/>
		<path fill-rule="evenodd" clip-rule="evenodd" fill="#DED7D4" d="M12.161,12.003c0-0.334,0-0.667,0-1c0.333,0,0.667,0,1,0
			c0,0.333,0,0.666,0,1C12.828,12.003,12.494,12.003,12.161,12.003z"/>
		<path fill-rule="evenodd" clip-rule="evenodd" fill="#F5EFED" d="M14.161,12.003c0-0.334,0-0.667,0-1c0.334,0,0.667,0,1.001,0
			c0,0.333,0,0.666,0,1C14.828,12.003,14.495,12.003,14.161,12.003z"/>
		<path fill-rule="evenodd" clip-rule="evenodd" fill="#E9DFDA" d="M18.162,12.003c0-0.334,0-0.667,0-1c0.334,0,0.667,0,1,0
			c0,0.333,0,0.666,0,1C18.829,12.003,18.496,12.003,18.162,12.003z"/>
		<path fill-rule="evenodd" clip-rule="evenodd" fill="#FAF8F5" d="M19.162,12.003c0-0.334,0-0.667,0-1c0.334,0,0.667,0,1.001,0
			c0,0.333,0,0.666,0,1C19.829,12.003,19.496,12.003,19.162,12.003z"/>
		<path fill-rule="evenodd" clip-rule="evenodd" fill="#FFFFFF" d="M20.163,12.003c0-0.334,0-0.667,0-1c0.333,0,0.666,0,1,0
			c0.333,0,0.667,0,1,0c0,1.333,0,2.667,0,4.001c-0.333,0-0.667,0-1,0c-0.334,0-0.667,0-1,0
			C20.163,14.003,20.163,13.003,20.163,12.003z"/>
		<path fill-rule="evenodd" clip-rule="evenodd" fill="#FCFBFA" d="M1.158,12.003c0.333,0,0.667,0,1,0c0,0.333,0,0.667,0,1
			c0,0.667,0,1.334,0,2.001c0,1.333,0,2.667,0,4c0,0.667,0,1.334,0,2.001c0,0.333,0,0.667,0,1c-0.333,0-0.667,0-1,0
			C1.158,18.671,1.158,15.337,1.158,12.003z"/>
		<path fill-rule="evenodd" clip-rule="evenodd" fill="#E5DDD9" d="M2.159,13.003c0-0.333,0-0.667,0-1c0.61,0.057,1.184,0.149,1,1
			C2.826,13.003,2.492,13.003,2.159,13.003z"/>
		<path fill-rule="evenodd" clip-rule="evenodd" fill="#F6F3F0" d="M6.16,13.003c0-0.333,0-0.667,0-1c0.333,0,0.667,0,1,0
			s0.667,0,1,0c0,0.333,0,0.667,0,1C7.493,13.003,6.826,13.003,6.16,13.003z"/>
		<path fill-rule="evenodd" clip-rule="evenodd" fill="#EBEAEA" d="M8.16,13.003c0-0.333,0-0.667,0-1c0.333,0,0.667,0,1,0
			s0.667,0,1,0s0.667,0,1,0c0.333,0,0.666,0,1,0c0.333,0,0.667,0,1,0c0,0.333,0,0.667,0,1c-1.334,0-2.667,0-4.001,0
			C8.827,13.003,8.494,13.003,8.16,13.003z"/>
		<path fill-rule="evenodd" clip-rule="evenodd" fill="#F4F1ED" d="M13.161,13.003c0-0.333,0-0.667,0-1c0.333,0,0.667,0,1,0
			c0,0.333,0,0.667,0,1C13.828,13.003,13.494,13.003,13.161,13.003z"/>
		<path fill-rule="evenodd" clip-rule="evenodd" fill="#F6F3F0" d="M14.161,13.003c0-0.333,0-0.667,0-1c0.334,0,0.667,0,1.001,0
			c0,0.333,0,0.667,0,1C14.828,13.003,14.495,13.003,14.161,13.003z"/>
		<path fill-rule="evenodd" clip-rule="evenodd" fill="#F3EFEB" d="M15.162,13.003c0-0.333,0-0.667,0-1c0.333,0,0.666,0,1,0
			c0,0.667,0,1.333,0,2c-0.334,0-0.667,0-1,0C15.162,13.67,15.162,13.336,15.162,13.003z"/>
		<path fill-rule="evenodd" clip-rule="evenodd" fill="#F0EBE8" d="M16.162,12.003c0.779,0.221,1.162,0.837,1,2
			c-0.333,0-0.667,0-1,0C16.162,13.336,16.162,12.67,16.162,12.003z"/>
		<path fill-rule="evenodd" clip-rule="evenodd" fill="#E9E2DC" d="M18.162,12.003c0.334,0,0.667,0,1,0c0,0.667,0,1.333,0,2
			c-0.333,0-0.666,0-1,0C18.162,13.336,18.162,12.67,18.162,12.003z"/>
		<path fill-rule="evenodd" clip-rule="evenodd" fill="#F0EBE8" d="M19.162,12.003c0.334,0,0.667,0,1.001,0c0,1,0,2,0,3.001
			c-0.334,0-0.667,0-1.001,0c0-0.334,0-0.667,0-1.001C19.162,13.336,19.162,12.67,19.162,12.003z"/>
		<path fill-rule="evenodd" clip-rule="evenodd" fill="#E9DFDA" d="M2.159,13.003c0.333,0,0.667,0,1,0c0,0.667,0,1.334,0,2.001
			c-0.333,0-0.667,0-1,0C2.159,14.337,2.159,13.67,2.159,13.003z"/>
		<path fill-rule="evenodd" clip-rule="evenodd" fill="#7A6D6D" d="M8.16,14.003c0-0.333,0-0.667,0-1c0.333,0,0.667,0,1,0
			c0,0.333,0,0.667,0,1C8.827,14.003,8.494,14.003,8.16,14.003z"/>
		<path fill-rule="evenodd" clip-rule="evenodd" fill="#66534F" d="M9.16,14.003c0-0.333,0-0.667,0-1c1.334,0,2.667,0,4.001,0
			c0,0.333,0,0.667,0,1C11.827,14.003,10.494,14.003,9.16,14.003z"/>
		<path fill-rule="evenodd" clip-rule="evenodd" fill="#BDB6B5" d="M13.161,14.003c0-0.333,0-0.667,0-1c0.333,0,0.667,0,1,0
			c0,0.333,0,0.667,0,1C13.828,14.003,13.494,14.003,13.161,14.003z"/>
		<path fill-rule="evenodd" clip-rule="evenodd" fill="#FFFFFF" d="M14.161,14.003c0-0.333,0-0.667,0-1c0.334,0,0.667,0,1.001,0
			c0,0.333,0,0.667,0,1c0,0.334,0,0.667,0,1.001c-0.334,0-0.667,0-1.001,0C14.161,14.67,14.161,14.337,14.161,14.003z"/>
		<path fill-rule="evenodd" clip-rule="evenodd" fill="#FAF8F5" d="M6.16,15.004c0-0.334,0-0.667,0-1.001
			C6.715,14,7.295,14.813,6.16,15.004z"/>
		<path fill-rule="evenodd" clip-rule="evenodd" fill="#52403F" d="M8.16,15.004c0-0.334,0-0.667,0-1.001c0.333,0,0.667,0,1,0
			c0,0.334,0,0.667,0,1.001C8.827,15.004,8.494,15.004,8.16,15.004z"/>
		<path fill-rule="evenodd" clip-rule="evenodd" fill="#3D221C" d="M9.16,15.004c0-0.334,0-0.667,0-1.001c1.334,0,2.667,0,4.001,0
			c0,0.334,0,0.667,0,1.001c-0.667,0-1.334,0-2,0c-0.334,0-0.667,0-1,0S9.494,15.004,9.16,15.004z"/>
		<path fill-rule="evenodd" clip-rule="evenodd" fill="#AA9C97" d="M13.161,15.004c0-0.334,0-0.667,0-1.001c0.333,0,0.667,0,1,0
			c0,0.334,0,0.667,0,1.001C13.828,15.004,13.494,15.004,13.161,15.004z"/>
		<path fill-rule="evenodd" clip-rule="evenodd" fill="#F4F1ED" d="M15.162,15.004c0-0.334,0-0.667,0-1.001c0.333,0,0.666,0,1,0
			c0,0.334,0,0.667,0,1.001C15.828,15.004,15.495,15.004,15.162,15.004z"/>
		<path fill-rule="evenodd" clip-rule="evenodd" fill="#F5EFED" d="M16.162,15.004c0-0.334,0-0.667,0-1.001c0.333,0,0.667,0,1,0
			c0,0.334,0,0.667,0,1.001C16.829,15.004,16.495,15.004,16.162,15.004z"/>
		<path fill-rule="evenodd" clip-rule="evenodd" fill="#F2EDE9" d="M17.162,15.004c0-0.334,0-0.667,0-1.001c0.333,0,0.667,0,1,0
			C18.105,14.613,18.013,15.188,17.162,15.004z"/>
		<path fill-rule="evenodd" clip-rule="evenodd" fill="#E5DDD9" d="M2.159,15.004c0.333,0,0.667,0,1,0c0,0.333,0,0.666,0,1
			c0,0.667,0,1.333,0,2c0,0.334,0,0.667,0,1c-0.333,0-0.667,0-1,0C2.159,17.671,2.159,16.337,2.159,15.004z"/>
		<path fill-rule="evenodd" clip-rule="evenodd" fill="#F0EBE8" d="M5.159,16.004c-0.61-0.057-1.184-0.149-1-1
			C4.77,15.061,5.343,15.153,5.159,16.004z"/>
		<path fill-rule="evenodd" clip-rule="evenodd" fill="#F6F3F0" d="M6.16,16.004c1.003,0.003,1.19-0.811,2-1c0,0.666,0,1.333,0,2
			c-0.851-0.184-0.944,0.39-1,1c-0.333,0-0.667,0-1,0c0-0.333,0-0.667,0-1S6.16,16.337,6.16,16.004z"/>
		<path fill-rule="evenodd" clip-rule="evenodd" fill="#66534F" d="M8.16,15.004c0.333,0,0.667,0,1,0c0,0.333,0,0.666,0,1
			c0,0.333,0,0.667,0,1s0,0.667,0,1c0,0.334,0,0.667,0,1c0,0.334,0,0.667,0,1.001c0,0.333,0,0.667,0,1s0,0.667,0,1
			c-0.333,0-0.667,0-1,0c0-0.333,0-0.667,0-1c0-0.334,0-0.667,0-1c0-0.334,0-0.667,0-1.001c0-0.333,0-0.666,0-1c0-0.333,0-0.667,0-1
			C8.16,16.337,8.16,15.67,8.16,15.004z"/>
		<path fill-rule="evenodd" clip-rule="evenodd" fill="#50342C" d="M9.16,16.004c0-0.334,0-0.667,0-1c0.333,0,0.667,0,1,0
			c0,0.333,0,0.666,0,1C9.827,16.004,9.494,16.004,9.16,16.004z"/>
		<path fill-rule="evenodd" clip-rule="evenodd" fill="#4F3631" d="M10.161,16.004c0-0.334,0-0.667,0-1c0.333,0,0.667,0,1,0
			c0,0.333,0,0.666,0,1C10.827,16.004,10.494,16.004,10.161,16.004z"/>
		<path fill-rule="evenodd" clip-rule="evenodd" fill="#50342C" d="M11.161,16.004c0-0.334,0-0.667,0-1c0.666,0,1.333,0,2,0
			c0,0.333,0,0.666,0,1C12.494,16.004,11.827,16.004,11.161,16.004z"/>
		<path fill-rule="evenodd" clip-rule="evenodd" fill="#B4ABA9" d="M13.161,16.004c0-0.334,0-0.667,0-1c0.333,0,0.667,0,1,0
			c0,0.333,0,0.666,0,1C13.828,16.004,13.494,16.004,13.161,16.004z"/>
		<path fill-rule="evenodd" clip-rule="evenodd" fill="#FCFBFA" d="M14.161,16.004c0-0.334,0-0.667,0-1c0.334,0,0.667,0,1.001,0
			c0,0.333,0,0.666,0,1C14.828,16.004,14.495,16.004,14.161,16.004z"/>
		<path fill-rule="evenodd" clip-rule="evenodd" fill="#ECE6E1" d="M15.162,16.004c0-0.334,0-0.667,0-1c0.333,0,0.666,0,1,0
			c0,0.333,0,0.666,0,1C15.828,16.004,15.495,16.004,15.162,16.004z"/>
		<path fill-rule="evenodd" clip-rule="evenodd" fill="#E9E2DC" d="M16.162,16.004c0-0.334,0-0.667,0-1c0.333,0,0.667,0,1,0
			c0,0.333,0,0.666,0,1C16.829,16.004,16.495,16.004,16.162,16.004z"/>
		<path fill-rule="evenodd" clip-rule="evenodd" fill="#DED7D4" d="M18.162,16.004c0.057-0.61,0.149-1.185,1-1c0,0.333,0,0.666,0,1
			C18.829,16.004,18.496,16.004,18.162,16.004z"/>
		<path fill-rule="evenodd" clip-rule="evenodd" fill="#F5EFED" d="M19.162,16.004c0-0.334,0-0.667,0-1c0.334,0,0.667,0,1.001,0
			c0,0.333,0,0.666,0,1C19.829,16.004,19.496,16.004,19.162,16.004z"/>
		<path fill-rule="evenodd" clip-rule="evenodd" fill="#F4F1ED" d="M20.163,16.004c0-0.334,0-0.667,0-1c0.333,0,0.666,0,1,0
			c0,0.333,0,0.666,0,1C20.829,16.004,20.496,16.004,20.163,16.004z"/>
		<path fill-rule="evenodd" clip-rule="evenodd" fill="#F6F3F0" d="M21.163,16.004c0-0.334,0-0.667,0-1c0.333,0,0.667,0,1,0
			c0,0.333,0,0.666,0,1C21.83,16.004,21.496,16.004,21.163,16.004z"/>
		<path fill-rule="evenodd" clip-rule="evenodd" fill="#5A3A30" d="M9.16,17.004c0-0.333,0-0.667,0-1c0.333,0,0.667,0,1,0
			s0.667,0,1,0c0.666,0,1.333,0,2,0c0,0.333,0,0.667,0,1c-0.333,0-0.667,0-1,0c-0.334,0-0.667,0-1,0c-0.334,0-0.667,0-1,0
			S9.494,17.004,9.16,17.004z"/>
		<path fill-rule="evenodd" clip-rule="evenodd" fill="#ADA4A1" d="M13.161,17.004c0-0.333,0-0.667,0-1c0.333,0,0.667,0,1,0
			c0,0.333,0,0.667,0,1C13.828,17.004,13.494,17.004,13.161,17.004z"/>
		<path fill-rule="evenodd" clip-rule="evenodd" fill="#D8D0BE" d="M14.161,17.004c0-0.333,0-0.667,0-1c0.334,0,0.667,0,1.001,0
			c0,0.333,0,0.667,0,1C14.828,17.004,14.495,17.004,14.161,17.004z"/>
		<path fill-rule="evenodd" clip-rule="evenodd" fill="#C9BBA7" d="M15.162,17.004c0-0.333,0-0.667,0-1c0.333,0,0.666,0,1,0
			c0,0.333,0,0.667,0,1C15.828,17.004,15.495,17.004,15.162,17.004z"/>
		<path fill-rule="evenodd" clip-rule="evenodd" fill="#C1B19E" d="M16.162,17.004c0-0.333,0-0.667,0-1c0.333,0,0.667,0,1,0
			c0,0.333,0,0.667,0,1C16.829,17.004,16.495,17.004,16.162,17.004z"/>
		<path fill-rule="evenodd" clip-rule="evenodd" fill="#CEC1B6" d="M17.162,17.004c0-0.333,0-0.667,0-1c0.333,0,0.667,0,1,0
			c0,0.333,0,0.667,0,1C17.829,17.004,17.495,17.004,17.162,17.004z"/>
		<path fill-rule="evenodd" clip-rule="evenodd" fill="#E1D8CF" d="M20.163,17.004c-0.61-0.057-1.185-0.149-1.001-1
			c0.334,0,0.667,0,1.001,0C20.163,16.337,20.163,16.671,20.163,17.004z"/>
		<path fill-rule="evenodd" clip-rule="evenodd" fill="#C1B19E" d="M20.163,17.004c0-0.333,0-0.667,0-1c0.333,0,0.666,0,1,0
			c0,0.333,0,0.667,0,1C20.829,17.004,20.496,17.004,20.163,17.004z"/>
		<path fill-rule="evenodd" clip-rule="evenodd" fill="#D4C7B7" d="M21.163,17.004c0-0.333,0-0.667,0-1c0.333,0,0.667,0,1,0
			c0,0.333,0,0.667,0,1C21.83,17.004,21.496,17.004,21.163,17.004z"/>
		<path fill-rule="evenodd" clip-rule="evenodd" fill="#F4F1ED" d="M7.16,18.004c0.057-0.61,0.15-1.184,1-1c0,0.333,0,0.667,0,1
			C7.827,18.004,7.493,18.004,7.16,18.004z"/>
		<path fill-rule="evenodd" clip-rule="evenodd" fill="#4B2E24" d="M9.16,18.004c0-0.333,0-0.667,0-1c0.333,0,0.667,0,1,0
			c0,0.333,0,0.667,0,1C9.827,18.004,9.494,18.004,9.16,18.004z"/>
		<path fill-rule="evenodd" clip-rule="evenodd" fill="#50342C" d="M10.161,18.004c0-0.333,0-0.667,0-1c0.333,0,0.667,0,1,0
			c0,0.333,0,0.667,0,1C10.827,18.004,10.494,18.004,10.161,18.004z"/>
		<path fill-rule="evenodd" clip-rule="evenodd" fill="#4B2E24" d="M11.161,18.004c0-0.333,0-0.667,0-1c0.333,0,0.666,0,1,0
			c0,0.333,0,0.667,0,1C11.827,18.004,11.494,18.004,11.161,18.004z"/>
		<path fill-rule="evenodd" clip-rule="evenodd" fill="#50342C" d="M12.161,18.004c0-0.333,0-0.667,0-1c0.333,0,0.667,0,1,0
			c0,0.333,0,0.667,0,1C12.828,18.004,12.494,18.004,12.161,18.004z"/>
		<path fill-rule="evenodd" clip-rule="evenodd" fill="#9F9089" d="M13.161,18.004c0-0.333,0-0.667,0-1c0.333,0,0.667,0,1,0
			c0,0.333,0,0.667,0,1C13.828,18.004,13.494,18.004,13.161,18.004z"/>
		<path fill-rule="evenodd" clip-rule="evenodd" fill="#BDAF9A" d="M14.161,18.004c0-0.333,0-0.667,0-1c0.334,0,0.667,0,1.001,0
			c0,0.333,0,0.667,0,1C14.828,18.004,14.495,18.004,14.161,18.004z"/>
		<path fill-rule="evenodd" clip-rule="evenodd" fill="#B0A087" d="M15.162,18.004c0-0.333,0-0.667,0-1c0.333,0,0.666,0,1,0
			c0,0.333,0,0.667,0,1C15.828,18.004,15.495,18.004,15.162,18.004z"/>
		<path fill-rule="evenodd" clip-rule="evenodd" fill="#AE9C7F" d="M16.162,18.004c0-0.333,0-0.667,0-1c0.333,0,0.667,0,1,0
			c0,0.333,0,0.667,0,1C16.829,18.004,16.495,18.004,16.162,18.004z"/>
		<path fill-rule="evenodd" clip-rule="evenodd" fill="#AFA18A" d="M17.162,18.004c0-0.333,0-0.667,0-1c0.333,0,0.667,0,1,0
			c0,0.333,0,0.667,0,1C17.829,18.004,17.495,18.004,17.162,18.004z"/>
		<path fill-rule="evenodd" clip-rule="evenodd" fill="#AE9C7F" d="M18.162,18.004c0-0.333,0-0.667,0-1c0.61,0.057,1.185,0.149,1,1
			C18.829,18.004,18.496,18.004,18.162,18.004z"/>
		<path fill-rule="evenodd" clip-rule="evenodd" fill="#AA937A" d="M20.163,18.004c0-0.333,0-0.667,0-1c0.333,0,0.666,0,1,0
			c0,0.333,0,0.667,0,1C20.829,18.004,20.496,18.004,20.163,18.004z"/>
		<path fill-rule="evenodd" clip-rule="evenodd" fill="#C9BBA7" d="M21.163,18.004c0-0.333,0-0.667,0-1c0.333,0,0.667,0,1,0
			c0,0.333,0,0.667,0,1C21.83,18.004,21.496,18.004,21.163,18.004z"/>
		<path fill-rule="evenodd" clip-rule="evenodd" fill="#ECE6E1" d="M3.159,19.004c0-0.333,0-0.666,0-1
			c1.377-0.043,2.196,0.472,3.001,1c0,0.334,0,0.667,0,1.001c-1,0-2,0-3.001,0C3.159,19.671,3.159,19.338,3.159,19.004z"/>
		<path fill-rule="evenodd" clip-rule="evenodd" fill="#F5EFED" d="M6.16,19.004c0-0.333,0-0.666,0-1c0.333,0,0.667,0,1,0
			C7.103,18.614,7.01,19.188,6.16,19.004z"/>
		<path fill-rule="evenodd" clip-rule="evenodd" fill="#54362D" d="M9.16,19.004c0-0.333,0-0.666,0-1c0.333,0,0.667,0,1,0
			C10.104,18.614,10.011,19.188,9.16,19.004z"/>
		<path fill-rule="evenodd" clip-rule="evenodd" fill="#5A3A30" d="M11.161,19.004c0-0.333,0-0.666,0-1c0.333,0,0.666,0,1,0
			c0.333,0,0.667,0,1,0c0,0.334,0,0.667,0,1C12.494,19.004,11.827,19.004,11.161,19.004z"/>
		<path fill-rule="evenodd" clip-rule="evenodd" fill="#AFA39E" d="M13.161,19.004c0-0.333,0-0.666,0-1c0.333,0,0.667,0,1,0
			c0,0.667,0,1.334,0,2.001c-0.333,0-0.667,0-1,0C13.161,19.671,13.161,19.338,13.161,19.004z"/>
		<path fill-rule="evenodd" clip-rule="evenodd" fill="#D4C7B7" d="M14.161,18.004c0.334,0,0.667,0,1.001,0c0,0.334,0,0.667,0,1
			c0,0.334,0,0.667,0,1.001c-0.334,0-0.667,0-1.001,0C14.161,19.338,14.161,18.671,14.161,18.004z"/>
		<path fill-rule="evenodd" clip-rule="evenodd" fill="#C1B19E" d="M15.162,19.004c0-0.333,0-0.666,0-1c0.333,0,0.666,0,1,0
			c0,0.334,0,0.667,0,1C15.828,19.004,15.495,19.004,15.162,19.004z"/>
		<path fill-rule="evenodd" clip-rule="evenodd" fill="#BBAA92" d="M16.162,19.004c0-0.333,0-0.666,0-1c0.333,0,0.667,0,1,0
			c0,0.667,0,1.334,0,2.001c-0.333,0-0.667,0-1,0C16.162,19.671,16.162,19.338,16.162,19.004z"/>
		<path fill-rule="evenodd" clip-rule="evenodd" fill="#C9BBA7" d="M17.162,18.004c0.333,0,0.667,0,1,0c0,0.667,0,1.334,0,2.001
			c-0.333,0-0.667,0-1,0C17.162,19.338,17.162,18.671,17.162,18.004z"/>
		<path fill-rule="evenodd" clip-rule="evenodd" fill="#BBAA92" d="M18.162,18.004c0.334,0,0.667,0,1,0c0,0.334,0,0.667,0,1
			c0,0.334,0,0.667,0,1.001c-0.333,0-0.666,0-1,0C18.162,19.338,18.162,18.671,18.162,18.004z"/>
		<path fill-rule="evenodd" clip-rule="evenodd" fill="#E1D8CF" d="M19.162,19.004c0-0.333,0-0.666,0-1c0.334,0,0.667,0,1.001,0
			c0,0.334,0,0.667,0,1C19.829,19.004,19.496,19.004,19.162,19.004z"/>
		<path fill-rule="evenodd" clip-rule="evenodd" fill="#BBAA92" d="M20.163,19.004c0-0.333,0-0.666,0-1c0.333,0,0.666,0,1,0
			c0,0.667,0,1.334,0,2.001c-0.334,0-0.667,0-1,0C20.163,19.671,20.163,19.338,20.163,19.004z"/>
		<path fill-rule="evenodd" clip-rule="evenodd" fill="#D4C7B7" d="M21.163,18.004c0.333,0,0.667,0,1,0c0,0.667,0,1.334,0,2.001
			c-0.333,0-0.667,0-1,0C21.163,19.338,21.163,18.671,21.163,18.004z"/>
		<path fill-rule="evenodd" clip-rule="evenodd" fill="#EEE9E5" d="M7.16,20.005c0.057-0.61,0.15-1.185,1-1.001
			c0,0.334,0,0.667,0,1.001C7.827,20.005,7.493,20.005,7.16,20.005z"/>
		<path fill-rule="evenodd" clip-rule="evenodd" fill="#674335" d="M10.161,20.005c0.057-0.61,0.149-1.185,1-1.001
			c0.666,0,1.333,0,2,0c0,0.334,0,0.667,0,1.001c-0.333,0-0.667,0-1,0C11.494,20.005,10.827,20.005,10.161,20.005z"/>
		<path fill-rule="evenodd" clip-rule="evenodd" fill="#C9BBA7" d="M15.162,20.005c0-0.334,0-0.667,0-1.001c0.333,0,0.666,0,1,0
			c0,0.334,0,0.667,0,1.001C15.828,20.005,15.495,20.005,15.162,20.005z"/>
		<path fill-rule="evenodd" clip-rule="evenodd" fill="#E4DBD4" d="M19.162,20.005c0-0.334,0-0.667,0-1.001c0.334,0,0.667,0,1.001,0
			c0,0.334,0,0.667,0,1.001C19.829,20.005,19.496,20.005,19.162,20.005z"/>
		<path fill-rule="evenodd" clip-rule="evenodd" fill="#F0EBE6" d="M7.16,21.005c-0.61-0.057-1.184-0.149-1-1c0.333,0,0.667,0,1,0
			C7.16,20.338,7.16,20.672,7.16,21.005z"/>
		<path fill-rule="evenodd" clip-rule="evenodd" fill="#ECE6E1" d="M7.16,21.005c0-0.333,0-0.667,0-1c0.333,0,0.667,0,1,0
			c0,0.333,0,0.666,0,1C7.827,21.005,7.493,21.005,7.16,21.005z"/>
		<path fill-rule="evenodd" clip-rule="evenodd" fill="#50342C" d="M9.16,21.005c0-0.333,0-0.667,0-1c0.333,0,0.667,0,1,0
			C10.104,20.615,10.011,21.188,9.16,21.005z"/>
		<path fill-rule="evenodd" clip-rule="evenodd" fill="#9F9089" d="M13.161,21.005c0-0.333,0-0.667,0-1c0.333,0,0.667,0,1,0
			c0,0.333,0,0.667,0,1C13.828,21.005,13.494,21.005,13.161,21.005z"/>
		<path fill-rule="evenodd" clip-rule="evenodd" fill="#BDAF9A" d="M14.161,21.005c0-0.333,0-0.667,0-1c0.334,0,0.667,0,1.001,0
			c0,0.333,0,0.667,0,1C14.828,21.005,14.495,21.005,14.161,21.005z"/>
		<path fill-rule="evenodd" clip-rule="evenodd" fill="#B0A087" d="M15.162,21.005c0-0.333,0-0.667,0-1c0.333,0,0.666,0,1,0
			c0,0.333,0,0.667,0,1C15.828,21.005,15.495,21.005,15.162,21.005z"/>
		<path fill-rule="evenodd" clip-rule="evenodd" fill="#AE9C7F" d="M16.162,21.005c0-0.333,0-0.667,0-1c0.333,0,0.667,0,1,0
			c0,0.333,0,0.667,0,1C16.829,21.005,16.495,21.005,16.162,21.005z"/>
		<path fill-rule="evenodd" clip-rule="evenodd" fill="#AFA18A" d="M17.162,21.005c0-0.333,0-0.667,0-1c0.333,0,0.667,0,1,0
			c0,0.333,0,0.667,0,1C17.829,21.005,17.495,21.005,17.162,21.005z"/>
		<path fill-rule="evenodd" clip-rule="evenodd" fill="#AE9C7F" d="M18.162,21.005c0-0.333,0-0.667,0-1c0.334,0,0.667,0,1,0
			c0,0.333,0,0.667,0,1C18.829,21.005,18.496,21.005,18.162,21.005z"/>
		<path fill-rule="evenodd" clip-rule="evenodd" fill="#BDAF9A" d="M19.162,21.005c0-0.333,0-0.667,0-1c0.334,0,0.667,0,1.001,0
			c0,0.333,0,0.667,0,1C19.829,21.005,19.496,21.005,19.162,21.005z"/>
		<path fill-rule="evenodd" clip-rule="evenodd" fill="#AA937A" d="M20.163,21.005c0-0.333,0-0.667,0-1c0.333,0,0.666,0,1,0
			c0,0.333,0,0.667,0,1C20.829,21.005,20.496,21.005,20.163,21.005z"/>
		<path fill-rule="evenodd" clip-rule="evenodd" fill="#C9BBA7" d="M21.163,21.005c0-0.333,0-0.667,0-1c0.333,0,0.667,0,1,0
			c0,0.333,0,0.667,0,1C21.83,21.005,21.496,21.005,21.163,21.005z"/>
		<path fill-rule="evenodd" clip-rule="evenodd" fill="#E1D8CF" d="M2.159,22.005c0-0.333,0-0.667,0-1c0.61,0.057,1.184,0.149,1,1
			C2.826,22.005,2.492,22.005,2.159,22.005z"/>
		<path fill-rule="evenodd" clip-rule="evenodd" fill="#E5DDD9" d="M7.16,22.005c0-0.333,0-0.667,0-1c0.333,0,0.667,0,1,0
			c0,0.333,0,0.667,0,1C7.827,22.005,7.493,22.005,7.16,22.005z"/>
		<path fill-rule="evenodd" clip-rule="evenodd" fill="#674335" d="M12.161,22.005c0.057-0.61,0.149-1.184,1-1c0,0.333,0,0.667,0,1
			C12.828,22.005,12.494,22.005,12.161,22.005z"/>
		<path fill-rule="evenodd" clip-rule="evenodd" fill="#AA9C97" d="M13.161,22.005c0-0.333,0-0.667,0-1c0.333,0,0.667,0,1,0
			c0,0.333,0,0.667,0,1C13.828,22.005,13.494,22.005,13.161,22.005z"/>
		<path fill-rule="evenodd" clip-rule="evenodd" fill="#C9BBA7" d="M14.161,22.005c0-0.333,0-0.667,0-1c0.334,0,0.667,0,1.001,0
			c0,0.333,0,0.667,0,1C14.828,22.005,14.495,22.005,14.161,22.005z"/>
		<path fill-rule="evenodd" clip-rule="evenodd" fill="#C1B19E" d="M15.162,22.005c0-0.333,0-0.667,0-1c0.333,0,0.666,0,1,0
			c0,0.333,0,0.667,0,1C15.828,22.005,15.495,22.005,15.162,22.005z"/>
		<path fill-rule="evenodd" clip-rule="evenodd" fill="#BBAA92" d="M16.162,22.005c0-0.333,0-0.667,0-1c0.333,0,0.667,0,1,0
			c0,0.333,0,0.667,0,1C16.829,22.005,16.495,22.005,16.162,22.005z"/>
		<path fill-rule="evenodd" clip-rule="evenodd" fill="#C1B19E" d="M17.162,22.005c0-0.333,0-0.667,0-1c0.333,0,0.667,0,1,0
			c0,0.333,0,0.667,0,1C17.829,22.005,17.495,22.005,17.162,22.005z"/>
		<path fill-rule="evenodd" clip-rule="evenodd" fill="#BBAA92" d="M18.162,22.005c0-0.333,0-0.667,0-1c0.334,0,0.667,0,1,0
			c0,0.333,0,0.667,0,1C18.829,22.005,18.496,22.005,18.162,22.005z"/>
		<path fill-rule="evenodd" clip-rule="evenodd" fill="#DCD2C9" d="M19.162,22.005c0-0.333,0-0.667,0-1c0.334,0,0.667,0,1.001,0
			c0,0.333,0,0.667,0,1C19.829,22.005,19.496,22.005,19.162,22.005z"/>
		<path fill-rule="evenodd" clip-rule="evenodd" fill="#BBAA92" d="M20.163,22.005c0-0.333,0-0.667,0-1c0.333,0,0.666,0,1,0
			c0,0.333,0,0.667,0,1C20.829,22.005,20.496,22.005,20.163,22.005z"/>
		<path fill-rule="evenodd" clip-rule="evenodd" fill="#D4C7B7" d="M21.163,22.005c0-0.333,0-0.667,0-1c0.333,0,0.667,0,1,0
			C22.347,21.855,21.773,21.948,21.163,22.005z"/>
		<path fill-rule="evenodd" clip-rule="evenodd" fill="#FCFBFA" d="M2.159,8.002C3.883,4.725,7.436,3.277,9.16,0
			c0.333,0,0.667,0,1,0c0,0.333,0,0.667,0,1c-0.851-0.184-0.944,0.39-1,1c-0.89,0.443-1.789,0.878-2,2c-0.89,0.443-1.789,0.878-2,2
			C3.846,6.354,3.586,7.762,2.159,8.002z"/>
		<path fill-rule="evenodd" clip-rule="evenodd" fill="#E5D3D3" d="M20.163,9.002c-1.314-0.353-1.573-1.761-3.001-2
			c0-0.333,0-0.667,0-1C18.603,6.562,19.603,7.562,20.163,9.002z"/>
		<path fill-rule="evenodd" clip-rule="evenodd" fill="#B68B88" d="M7.16,4.001c0.211-1.122,1.11-1.557,2-2
			C8.717,2.891,8.282,3.79,7.16,4.001z"/>
		<path fill-rule="evenodd" clip-rule="evenodd" fill="#793935" d="M7.16,4.001c1.122-0.211,1.557-1.11,2-2c0.333,0,0.667,0,1,0
			c0,0.333,0,0.667,0,1c-0.851-0.184-0.944,0.39-1,1c-0.851-0.184-0.943,0.39-1,1c-0.333,0-0.667,0-1,0
			C7.16,4.668,7.16,4.334,7.16,4.001z"/>
		<path fill-rule="evenodd" clip-rule="evenodd" fill="#93655B" d="M11.161,3c0-0.333,0-0.667,0-1c0.333,0,0.666,0,1,0
			c-0.184,0.851,0.39,0.943,1,1c0,0.333,0,0.667,0,1c-0.333,0-0.667,0-1,0C12.345,3.15,11.771,3.057,11.161,3z"/>
		<path fill-rule="evenodd" clip-rule="evenodd" fill="#AE8381" d="M5.159,6.001c0.212-1.122,1.11-1.557,2-2c0,0.333,0,0.667,0,1
			c-0.851-0.184-0.943,0.39-1,1C5.826,6.001,5.493,6.001,5.159,6.001z"/>
		<path fill-rule="evenodd" clip-rule="evenodd" fill="#AE7A76" d="M2.159,8.002c1.427-0.24,1.687-1.647,3-2c0,0.333,0,0.667,0,1
			c-0.851-0.184-0.943,0.39-1,1c-0.851-0.184-0.944,0.39-1,1c-0.851-0.184-0.943,0.39-1,1c-0.333,0-0.667,0-1,0c0-0.333,0-0.667,0-1
			C2.009,9.186,2.102,8.612,2.159,8.002z"/>
		<path fill-rule="evenodd" clip-rule="evenodd" fill="#AA9C97" d="M9.16,7.001c0.027-0.973,1.225-0.776,2.001-1
			c-0.184,0.851,0.39,0.943,1,1c0.333,0,0.667,0,1,0c0,0.333,0,0.667,0,1c-0.333,0-0.667,0-1,0c-0.334,0-0.667,0-1,0
			c-0.19-1.136-1.004-0.556-1,0c-0.333,0-0.667,0-1,0C9.16,7.668,9.16,7.335,9.16,7.001z"/>
		<path fill-rule="evenodd" clip-rule="evenodd" fill="#E9E2DC" d="M14.161,8.002c0.851,0.184,0.944-0.39,1.001-1
			c0.333,0,0.666,0,1,0c0,0.333,0,0.667,0,1c-0.851-0.184-0.943,0.39-1,1c-0.334,0-0.667,0-1.001,0
			C14.161,8.668,14.161,8.335,14.161,8.002z"/>
		<path fill-rule="evenodd" clip-rule="evenodd" fill="#8C3B37" d="M17.162,8.002c0-0.333,0-0.667,0-1
			c1.428,0.24,1.687,1.647,3.001,2c0,0.333,0,0.667,0,1c-0.334,0-0.667,0-1.001,0C18.72,9.112,18.284,8.213,17.162,8.002z"/>
		<path fill-rule="evenodd" clip-rule="evenodd" fill="#C4BDBC" d="M10.161,9.002c0.851,0.184,0.943-0.39,1-1c0.333,0,0.666,0,1,0
			c0,0.333,0,0.667,0,1c-0.935,0.733-1.516,1.819-2,3.001c-0.333,0-0.667,0-1,0c0-0.334,0-0.667,0-1
			C10.133,10.975,9.937,9.778,10.161,9.002z"/>
		<path fill-rule="evenodd" clip-rule="evenodd" fill="#C59D99" d="M17.162,9.002c0-0.333,0-0.667,0-1c1.122,0.211,1.558,1.11,2,2
			c-0.333,0-0.666,0-1,0C18.346,9.151,17.772,9.059,17.162,9.002z"/>
		<path fill-rule="evenodd" clip-rule="evenodd" fill="#F6F3F0" d="M3.159,10.002c0.851,0.184,0.944-0.39,1-1c0.333,0,0.667,0,1,0
			c0,0.333,0,0.667,0,1c-0.81,0.19-0.997,1.003-2,1C3.159,10.669,3.159,10.336,3.159,10.002z"/>
		<path fill-rule="evenodd" clip-rule="evenodd" fill="#F2EDE9" d="M5.159,10.002c0.851,0.184,0.944-0.39,1-1c0.333,0,0.667,0,1,0
			c0,0.333,0,0.667,0,1c-0.81,0.19-0.997,1.003-2,1C5.159,10.669,5.159,10.336,5.159,10.002z"/>
		<path fill-rule="evenodd" clip-rule="evenodd" fill="#BDB6B5" d="M10.161,12.003c0.485-1.182,1.066-2.268,2-3.001
			c0,0.667,0,1.334,0,2.001c-0.851-0.184-0.943,0.39-1,1C10.827,12.003,10.494,12.003,10.161,12.003z"/>
		<path fill-rule="evenodd" clip-rule="evenodd" fill="#F2EDE9" d="M14.161,10.002c0-0.333,0-0.667,0-1c0.334,0,0.667,0,1.001,0
			c0.528,0.805,1.043,1.624,1,3.001c-0.334,0-0.667,0-1,0c0-0.334,0-0.667,0-1C15.346,10.152,14.771,10.059,14.161,10.002z"/>
		<path fill-rule="evenodd" clip-rule="evenodd" fill="#F0EBE6" d="M16.162,12.003c0.043-1.377-0.472-2.196-1-3.001
			c0.333,0,0.666,0,1,0c0.333,0,0.667,0,1,0c0,0.333,0,0.667,0,1c-0.163,1.163,0.221,1.78,1,2c0,0.667,0,1.333,0,2
			c-0.333,0-0.667,0-1,0C17.324,12.84,16.941,12.224,16.162,12.003z"/>
		<path fill-rule="evenodd" clip-rule="evenodd" fill="#EEE9E5" d="M3.159,11.003c1.003,0.003,1.19-0.811,2-1c0,0.333,0,0.667,0,1
			c-0.851-0.184-0.943,0.39-1,1C3.309,12.187,3.215,11.612,3.159,11.003z"/>
		<path fill-rule="evenodd" clip-rule="evenodd" fill="#F3EFEB" d="M5.159,11.003c1.003,0.003,1.19-0.811,2-1c0,0.333,0,0.667,0,1
			c-0.851-0.184-0.943,0.39-1,1c0,0.333,0,0.667,0,1s0,0.667,0,1c0,0.334,0,0.667,0,1.001c-0.851,0.184-0.944-0.391-1-1.001
			C5.159,13.003,5.159,12.003,5.159,11.003z"/>
		<path fill-rule="evenodd" clip-rule="evenodd" fill="#F0EBE6" d="M2.159,12.003c0-0.334,0-0.667,0-1c0.333,0,0.667,0,1,0
			c0.057,0.609,0.15,1.184,1,1c0,0.667,0,1.333,0,2c0,0.334,0,0.667,0,1.001c-0.184,0.851,0.39,0.943,1,1
			c-0.184,0.851,0.39,0.943,1,1c0,0.333,0,0.667,0,1c-1.314-0.354-1.573-1.761-3.001-2c0-0.334,0-0.667,0-1c0-0.667,0-1.334,0-2.001
			C3.343,12.152,2.769,12.06,2.159,12.003z"/>
		<path fill-rule="evenodd" clip-rule="evenodd" fill="#F2EDE9" d="M4.159,15.004c0-0.334,0-0.667,0-1.001c0.333,0,0.667,0,1,0
			c0.057,0.61,0.15,1.185,1,1.001c0,0.333,0,0.666,0,1c0,0.333,0,0.667,0,1c-0.61-0.057-1.184-0.149-1-1
			C5.343,15.153,4.77,15.061,4.159,15.004z"/>
		<path fill-rule="evenodd" clip-rule="evenodd" fill="#F9F6F4" d="M6.16,14.003c0-0.333,0-0.667,0-1c0.667,0,1.333,0,2,0
			c0,0.333,0,0.667,0,1c0,0.334,0,0.667,0,1.001c-0.81,0.189-0.997,1.003-2,1c0-0.334,0-0.667,0-1
			C7.295,14.813,6.715,14,6.16,14.003z"/>
		<path fill-rule="evenodd" clip-rule="evenodd" fill="#ECE6E1" d="M17.162,15.004c0.851,0.184,0.943-0.391,1-1.001
			c0.334,0,0.667,0,1,0c0,0.334,0,0.667,0,1.001c-0.851-0.185-0.943,0.39-1,1c-0.333,0-0.667,0-1,0
			C17.162,15.67,17.162,15.337,17.162,15.004z"/>
		<path fill-rule="evenodd" clip-rule="evenodd" fill="#EEE9E5" d="M3.159,16.004c1.428,0.239,1.687,1.646,3.001,2
			c0,0.334,0,0.667,0,1c-0.805-0.528-1.624-1.043-3.001-1C3.159,17.337,3.159,16.671,3.159,16.004z"/>
		<path fill-rule="evenodd" clip-rule="evenodd" fill="#BDAF9A" d="M18.162,17.004c0-0.333,0-0.667,0-1c0.334,0,0.667,0,1,0
			c-0.184,0.851,0.391,0.943,1.001,1c0,0.333,0,0.667,0,1c-0.334,0-0.667,0-1.001,0C19.347,17.153,18.772,17.061,18.162,17.004z"/>
		<path fill-rule="evenodd" clip-rule="evenodd" fill="#F2EDE9" d="M6.16,19.004c0.851,0.185,0.943-0.39,1-1c0.333,0,0.667,0,1,0
			c0,0.334,0,0.667,0,1c-0.851-0.184-0.944,0.391-1,1.001c-0.333,0-0.667,0-1,0C6.16,19.671,6.16,19.338,6.16,19.004z"/>
		<path fill-rule="evenodd" clip-rule="evenodd" fill="#613F32" d="M9.16,19.004c0.851,0.185,0.944-0.39,1-1c0.333,0,0.667,0,1,0
			c0,0.334,0,0.667,0,1c-0.851-0.184-0.944,0.391-1,1.001c-0.333,0-0.667,0-1,0C9.16,19.671,9.16,19.338,9.16,19.004z"/>
		<path fill-rule="evenodd" clip-rule="evenodd" fill="#E4DBD4" d="M2.159,19.004c0.333,0,0.667,0,1,0c0,0.334,0,0.667,0,1.001
			c0.227,1.44,2.985,0.349,3.001,2c-1,0-2,0-3.001,0c0.184-0.851-0.39-0.943-1-1C2.159,20.338,2.159,19.671,2.159,19.004z"/>
		<path fill-rule="evenodd" clip-rule="evenodd" fill="#E9E2DC" d="M6.16,22.005c-0.016-1.651-2.774-0.56-3.001-2c1,0,2,0,3.001,0
			c-0.184,0.851,0.39,0.943,1,1c0,0.333,0,0.667,0,1C6.826,22.005,6.493,22.005,6.16,22.005z"/>
		<path fill-rule="evenodd" clip-rule="evenodd" fill="#5A3A30" d="M9.16,21.005c0.851,0.184,0.944-0.39,1-1c0.667,0,1.333,0,2,0
			c-0.248,1.086-1.989,0.678-2,2c-0.333,0-0.667,0-1,0C9.16,21.672,9.16,21.338,9.16,21.005z"/>
		<path fill-rule="evenodd" clip-rule="evenodd" fill="#613F32" d="M10.161,22.005c0.012-1.322,1.752-0.914,2-2c0.333,0,0.667,0,1,0
			c0,0.333,0,0.667,0,1c-0.851-0.184-0.943,0.39-1,1C11.494,22.005,10.827,22.005,10.161,22.005z"/>
	</g>
</g>
</svg>
