<?xml version="1.0" encoding="UTF-8" ?>
<!DOCTYPE svg PUBLIC "-//W3C//DTD SVG 1.1//EN" "http://www.w3.org/Graphics/SVG/1.1/DTD/svg11.dtd">
<svg width="22pt" height="22pt" viewBox="0 0 22 22" version="1.1" xmlns="http://www.w3.org/2000/svg">
<path fill="#ffffff" d=" M 0.00 0.00 L 22.00 0.00 L 22.00 10.68 C 19.48 7.35 17.01 3.98 14.40 0.72 C 11.76 4.03 9.25 7.43 6.72 10.81 C 7.68 10.82 9.61 10.83 10.57 10.83 C 10.66 14.55 10.45 18.28 10.73 22.00 L 0.00 22.00 L 0.00 0.00 Z" />
<path fill="#357ba2" d=" M 14.40 0.72 C 17.01 3.98 19.48 7.35 22.00 10.68 L 22.00 10.83 C 20.74 10.83 19.47 10.83 18.21 10.83 C 18.19 14.56 18.19 18.28 18.20 22.00 L 10.73 22.00 C 10.45 18.28 10.66 14.55 10.57 10.83 C 9.61 10.83 7.68 10.82 6.72 10.81 C 9.25 7.43 11.76 4.03 14.40 0.72 Z" />
<path fill="#ffffff" d=" M 18.21 10.83 C 19.47 10.83 20.74 10.83 22.00 10.83 L 22.00 22.00 L 18.20 22.00 C 18.19 18.28 18.19 14.56 18.21 10.83 Z" />
</svg>
